<?xml version="1.0" encoding="UTF-8" standalone="no"?>
<svg
   xmlns:dc="http://purl.org/dc/elements/1.1/"
   xmlns:cc="http://creativecommons.org/ns#"
   xmlns:rdf="http://www.w3.org/1999/02/22-rdf-syntax-ns#"
   xmlns:svg="http://www.w3.org/2000/svg"
   xmlns="http://www.w3.org/2000/svg"
   xmlns:sodipodi="http://sodipodi.sourceforge.net/DTD/sodipodi-0.dtd"
   xmlns:inkscape="http://www.inkscape.org/namespaces/inkscape"
   width="31.696886mm"
   height="10.117635mm"
   viewBox="0 0 31.696886 10.117635"
   version="1.1"
   id="svg8"
   inkscape:version="1.0beta2 (unknown)"
   sodipodi:docname="nombre.svg">
  <defs
     id="defs2" />
  <sodipodi:namedview
     id="base"
     pagecolor="#ffffff"
     bordercolor="#666666"
     borderopacity="1.0"
     inkscape:pageopacity="0.0"
     inkscape:pageshadow="2"
     inkscape:zoom="5.6"
     inkscape:cx="39.741252"
     inkscape:cy="25.758793"
     inkscape:document-units="mm"
     inkscape:current-layer="layer1"
     inkscape:document-rotation="0"
     showgrid="false"
     fit-margin-top="0"
     fit-margin-left="0"
     fit-margin-bottom="0"
     fit-margin-right="0"
     inkscape:window-width="1920"
     inkscape:window-height="1042"
     inkscape:window-x="0"
     inkscape:window-y="38"
     inkscape:window-maximized="1" />
  <metadata
     id="metadata5">
    <rdf:RDF>
      <cc:Work
         rdf:about="">
        <dc:format>image/svg+xml</dc:format>
        <dc:type
           rdf:resource="http://purl.org/dc/dcmitype/StillImage" />
        <dc:title></dc:title>
      </cc:Work>
    </rdf:RDF>
  </metadata>
  <g
     inkscape:label="Layer 1"
     inkscape:groupmode="layer"
     id="layer1"
     transform="translate(-96.111784,-72.331059)">
    <g
       aria-label="AlertaGT"
       id="text835"
       style="font-style:normal;font-weight:normal;font-size:10.5833px;line-height:1.25;font-family:sans-serif;letter-spacing:0px;word-spacing:0px;fill:#ffffff;fill-opacity:1;stroke:none;stroke-width:0.264583">
      <path
         inkscape:connector-curvature="0"
         d="m 100.75785,73.971471 -0.4445,5.058817 q -0.0318,0.380999 0.30692,0.391582 l -0.0635,0.709081 h -0.560915 q -0.529165,0 -0.825497,-0.264583 -0.328083,-0.296332 -0.275166,-0.83608 l 0.158749,-1.799161 h -1.280579 l -0.253999,2.899824 h -1.407579 l 0.539748,-6.15948 q 0.07408,-0.846664 0.814914,-1.28058 0.592665,-0.359832 1.375829,-0.359832 0.783164,0 1.322915,0.359832 0.66675,0.444499 0.59266,1.28058 z m -1.396993,-0.201083 q 0.03175,-0.306916 -0.127,-0.518582 -0.158749,-0.211666 -0.455082,-0.211666 -0.285749,0 -0.476248,0.211666 -0.190499,0.211666 -0.222249,0.518582 l -0.243416,2.751658 h 1.280579 z"
         style="font-style:normal;font-variant:normal;font-weight:normal;font-stretch:normal;font-family:HamburgerHeaven;-inkscape-font-specification:HamburgerHeaven;fill:#ffffff;fill-opacity:1;stroke-width:0.264583"
         id="path837" />
      <path
         inkscape:connector-curvature="0"
         d="m 103.26608,72.331059 -0.56092,6.476979 q -0.0529,0.571499 0.43392,0.613832 l -0.0529,0.709081 h -0.23283 q -0.77258,0 -1.19591,-0.349249 -0.42333,-0.359832 -0.37042,-0.973664 l 0.508,-5.767898 h -0.381 l 0.0635,-0.709081 z"
         style="font-style:normal;font-variant:normal;font-weight:normal;font-stretch:normal;font-family:HamburgerHeaven;-inkscape-font-specification:HamburgerHeaven;fill:#ffffff;fill-opacity:1;stroke-width:0.264583"
         id="path839" />
      <path
         inkscape:connector-curvature="0"
         d="m 107.28772,76.257463 h -0.70908 q 0.0318,-0.328082 -0.16933,-0.539748 -0.20109,-0.222249 -0.48684,-0.253999 -0.39158,-0.03175 -0.62441,0.264582 -0.22225,0.296333 -0.22225,0.687915 0,0.677331 0.49741,0.677331 h 1.31233 l -0.0635,0.698498 h -1.30174 q -0.28575,0 -0.46567,0.275165 -0.16933,0.264583 -0.16933,0.613832 0,0.328082 0.16933,0.550331 0.17992,0.22225 0.51858,0.201083 0.28575,-0.02117 0.51859,-0.232832 0.24341,-0.22225 0.27516,-0.571499 h 0.70908 q -0.0635,0.719665 -0.61383,1.132413 -0.508,0.370416 -1.23824,0.370416 -0.6985,0 -1.21708,-0.423332 -0.55034,-0.433915 -0.508,-1.079497 0.0529,-0.740831 0.73025,-1.185329 -0.58209,-0.550332 -0.52917,-1.18533 0.0635,-0.687914 0.6985,-1.111246 0.5715,-0.391582 1.29116,-0.391582 0.74083,0 1.17475,0.370415 0.48683,0.402166 0.42333,1.132413 z"
         style="font-style:normal;font-variant:normal;font-weight:normal;font-stretch:normal;font-family:HamburgerHeaven;-inkscape-font-specification:HamburgerHeaven;fill:#ffffff;fill-opacity:1;stroke-width:0.264583"
         id="path841" />
      <path
         inkscape:connector-curvature="0"
         d="m 111.38345,74.754635 -0.13758,1.471078 h -0.77258 l 0.0529,-0.698497 q -0.48683,0.179916 -0.82549,0.656164 -0.33867,0.476249 -0.381,1.005414 l -0.254,2.942157 h -1.41816 l 0.41275,-4.667235 h -0.40217 l 0.0635,-0.709081 h 1.80974 l -0.0318,0.455082 q 0.55034,-0.455082 1.40758,-0.455082 z"
         style="font-style:normal;font-variant:normal;font-weight:normal;font-stretch:normal;font-family:HamburgerHeaven;-inkscape-font-specification:HamburgerHeaven;fill:#ffffff;fill-opacity:1;stroke-width:0.264583"
         id="path843" />
      <path
         inkscape:connector-curvature="0"
         d="m 114.28326,74.754635 -0.0635,0.709081 h -0.60325 l -0.29633,3.354906 q -0.0529,0.539748 0.43391,0.592665 l -0.0635,0.719664 h -0.49741 q -0.61383,0 -0.96308,-0.328082 -0.381,-0.349249 -0.32809,-0.984247 l 0.29634,-3.354906 h -0.56092 l 0.0635,-0.709081 h 0.56092 l 0.10583,-1.24883 h 1.41816 l -0.11641,1.24883 z"
         style="font-style:normal;font-variant:normal;font-weight:normal;font-stretch:normal;font-family:HamburgerHeaven;-inkscape-font-specification:HamburgerHeaven;fill:#ffffff;fill-opacity:1;stroke-width:0.264583"
         id="path845" />
      <path
         inkscape:connector-curvature="0"
         d="m 118.69647,79.42187 -0.0635,0.709081 h -0.49741 q -0.74083,0 -1.0795,-0.433915 -0.46566,0.433915 -1.09008,0.433915 h -0.22225 q -0.71966,0 -1.22766,-0.380999 -0.56091,-0.423332 -0.49741,-1.12183 l 0.20108,-2.370659 q 0.0635,-0.687914 0.6985,-1.12183 0.57149,-0.380998 1.29116,-0.380998 h 2.44474 l -0.35983,4.190986 q -0.0423,0.455082 0.40216,0.476249 z m -1.52399,-3.958154 h -1.016 q -0.45508,0 -0.49741,0.529165 l -0.23284,2.719908 q -0.0635,0.709081 0.60325,0.709081 0.32809,0 0.58208,-0.232833 0.254,-0.232832 0.28575,-0.560915 z"
         style="font-style:normal;font-variant:normal;font-weight:normal;font-stretch:normal;font-family:HamburgerHeaven;-inkscape-font-specification:HamburgerHeaven;fill:#ffffff;fill-opacity:1;stroke-width:0.264583"
         id="path847" />
      <path
         inkscape:connector-curvature="0"
         d="m 124.01986,72.331059 -0.0635,0.709081 h -2.51882 q -0.1905,0 -0.33867,0.179916 -0.13758,0.169333 -0.15875,0.444499 l -0.43392,4.963567 q -0.0423,0.423332 0.17992,0.645582 0.20108,0.179916 0.51858,0.158749 0.3175,-0.02117 0.56092,-0.243416 0.254,-0.222249 0.28575,-0.560915 l 0.24341,-2.751658 h 1.41816 l -0.44449,5.058818 q -0.0529,0.624414 -0.64559,1.068913 -0.58208,0.444499 -1.34407,0.444499 h -1.42875 l 0.0635,-0.709082 h 1.15358 q 0.30692,0 0.52916,-0.232832 0.22225,-0.232833 0.254,-0.571498 l 0.0953,-1.037164 q -0.381,0.232833 -0.82549,0.232833 -0.48684,0 -0.67733,-0.03175 -0.60325,-0.09525 -0.98425,-0.465665 -0.42333,-0.412749 -0.37042,-1.005414 l 0.41275,-4.783651 q 0.0635,-0.709081 0.61383,-1.132413 0.49742,-0.380999 1.2065,-0.380999 z"
         style="font-style:normal;font-variant:normal;font-weight:normal;font-stretch:normal;font-family:HamburgerHeaven;-inkscape-font-specification:HamburgerHeaven;fill:#ffffff;fill-opacity:1;stroke-width:0.264583"
         id="path849" />
      <path
         inkscape:connector-curvature="0"
         d="m 127.80867,72.341642 -0.0635,0.698498 h -1.01599 l -0.61384,7.090811 h -1.41816 l 0.62442,-7.090811 h -1.016 l 0.0635,-0.698498 z"
         style="font-style:normal;font-variant:normal;font-weight:normal;font-stretch:normal;font-family:HamburgerHeaven;-inkscape-font-specification:HamburgerHeaven;fill:#ffffff;fill-opacity:1;stroke-width:0.264583"
         id="path851" />
    </g>
  </g>
</svg>
