<?xml version="1.0" standalone="no"?>
<!DOCTYPE svg PUBLIC "-//W3C//DTD SVG 20010904//EN"
 "http://www.w3.org/TR/2001/REC-SVG-20010904/DTD/svg10.dtd">
<svg version="1.0" xmlns="http://www.w3.org/2000/svg"
 width="290.000000pt" height="290.000000pt" viewBox="0 0 290.000000 290.000000"
 preserveAspectRatio="xMidYMid meet">
<metadata>
Created by potrace 1.11, written by Peter Selinger 2001-2013
</metadata>
<g transform="translate(0.000000,290.000000) scale(0.100000,-0.100000)"
fill="#000000" stroke="none">
<path d="M1430 2810 c8 -5 20 -10 25 -10 6 0 3 5 -5 10 -8 5 -19 10 -25 10 -5
0 -3 -5 5 -10z"/>
<path d="M1477 2809 c7 -7 15 -10 18 -7 3 3 -2 9 -12 12 -14 6 -15 5 -6 -5z"/>
<path d="M1547 2808 c-4 -13 -1 -16 15 -13 11 3 23 7 27 11 3 4 -2 4 -11 1 -9
-3 -18 -1 -21 6 -2 6 -6 4 -10 -5z"/>
<path d="M1370 2789 l-25 -20 25 12 c14 7 28 12 33 11 4 -1 7 3 7 8 0 15 -12
12 -40 -11z"/>
<path d="M1640 2780 c-9 -6 -10 -10 -3 -10 6 0 15 5 18 10 8 12 4 12 -15 0z"/>
<path d="M1296 2772 c-3 -5 1 -9 9 -9 8 0 12 4 9 9 -3 4 -7 8 -9 8 -2 0 -6 -4
-9 -8z"/>
<path d="M1660 2766 c0 -2 7 -6 15 -10 8 -3 15 -1 15 4 0 6 -7 10 -15 10 -8 0
-15 -2 -15 -4z"/>
<path d="M1230 2735 c-7 -9 -11 -17 -9 -20 3 -2 10 5 17 15 14 24 10 26 -8 5z"/>
<path d="M1726 2742 c-3 -5 1 -9 9 -9 8 0 12 4 9 9 -3 4 -7 8 -9 8 -2 0 -6 -4
-9 -8z"/>
<path d="M1781 2694 c0 -11 3 -14 6 -6 3 7 2 16 -1 19 -3 4 -6 -2 -5 -13z"/>
<path d="M1145 2659 c-4 -6 -4 -13 -1 -16 3 -4 6 -1 6 6 0 7 5 9 12 5 7 -4 8
-3 4 4 -9 15 -13 15 -21 1z"/>
<path d="M1833 2645 c0 -8 4 -15 9 -15 4 0 8 4 8 9 0 6 -4 12 -8 15 -5 3 -9
-1 -9 -9z"/>
<path d="M1110 2610 c-6 -11 -9 -20 -8 -20 2 0 11 9 21 20 9 11 13 20 7 20 -5
0 -14 -9 -20 -20z"/>
<path d="M1860 2620 c0 -5 5 -10 11 -10 5 0 7 -5 3 -12 -4 -7 -3 -8 5 -4 9 6
9 11 0 22 -14 17 -19 18 -19 4z"/>
<path d="M1885 2580 c-3 -6 1 -7 9 -4 18 7 21 14 7 14 -6 0 -13 -4 -16 -10z"/>
<path d="M1066 2557 c3 -10 9 -15 12 -12 3 3 0 11 -7 18 -10 9 -11 8 -5 -6z"/>
<path d="M1925 2540 c-3 -5 -1 -10 4 -10 6 0 11 5 11 10 0 6 -2 10 -4 10 -3 0
-8 -4 -11 -10z"/>
<path d="M1044 2520 c0 -13 4 -16 10 -10 7 7 7 13 0 20 -6 6 -10 3 -10 -10z"/>
<path d="M1940 2511 c0 -6 4 -13 10 -16 6 -3 7 1 4 9 -7 18 -14 21 -14 7z"/>
<path d="M1021 2494 c0 -11 3 -14 6 -6 3 7 2 16 -1 19 -3 4 -6 -2 -5 -13z"/>
<path d="M1964 2482 c-9 -5 -8 -10 1 -19 11 -10 13 -9 12 7 -1 11 -1 20 -2 20
0 0 -5 -4 -11 -8z"/>
<path d="M996 2462 c-2 -4 0 -14 6 -22 8 -12 9 -12 5 2 -3 9 -1 19 6 22 9 3 9
5 0 5 -6 1 -14 -3 -17 -7z"/>
<path d="M1990 2440 c0 -5 5 -10 11 -10 5 0 7 5 4 10 -3 6 -8 10 -11 10 -2 0
-4 -4 -4 -10z"/>
<path d="M2013 2390 c-1 -11 2 -20 7 -20 4 0 7 7 6 15 -3 23 -12 26 -13 5z"/>
<path d="M966 2387 c3 -10 9 -15 12 -12 3 3 0 11 -7 18 -10 9 -11 8 -5 -6z"/>
<path d="M2031 2350 c0 -8 4 -22 9 -30 12 -18 12 -2 0 25 -6 13 -9 15 -9 5z"/>
<path d="M946 2323 c-6 -14 -5 -15 5 -6 7 7 10 15 7 18 -3 3 -9 -2 -12 -12z"/>
<path d="M919 2288 c-6 -21 -5 -37 2 -32 5 3 7 9 4 14 -3 4 1 11 7 13 10 4 10
6 1 6 -7 1 -13 0 -14 -1z"/>
<path d="M2067 2275 c-4 -8 -2 -17 4 -20 5 -4 6 -11 3 -17 -5 -7 -2 -8 5 -3 9
5 9 11 3 17 -6 6 -8 17 -5 24 3 8 3 14 0 14 -3 0 -7 -7 -10 -15z"/>
<path d="M905 2231 c-3 -5 -2 -12 3 -15 5 -3 9 1 9 9 0 17 -3 19 -12 6z"/>
<path d="M890 2201 c0 -6 4 -13 10 -16 6 -3 7 1 4 9 -7 18 -14 21 -14 7z"/>
<path d="M2087 2189 c4 -13 8 -18 11 -10 2 7 -1 18 -6 23 -8 8 -9 4 -5 -13z"/>
<path d="M1213 2189 c-18 -5 -33 -15 -33 -21 0 -6 -3 -8 -7 -4 -9 8 -83 -64
-83 -81 0 -7 -4 -13 -9 -13 -7 0 -22 -36 -20 -49 0 -2 -3 -7 -8 -10 -13 -8
-40 -110 -39 -143 1 -16 -1 -28 -5 -28 -3 0 -6 -15 -6 -32 -1 -18 -2 -44 -2
-58 -3 -84 -1 -104 11 -111 8 -5 8 -9 2 -9 -11 0 -9 -70 3 -120 3 -14 7 -34 9
-45 7 -48 12 -74 29 -135 9 -36 20 -69 23 -75 4 -5 8 -17 10 -25 4 -22 2 -123
-3 -129 -3 -2 1 -11 8 -19 9 -13 9 -14 0 -8 -9 5 -13 0 -13 -13 0 -17 -6 -21
-30 -21 -20 0 -30 -5 -30 -15 0 -10 10 -15 29 -15 31 0 45 -18 31 -40 -6 -9
-2 -19 8 -28 9 -7 12 -11 5 -8 -21 11 -24 -13 -3 -24 20 -11 21 -9 19 27 -3
69 -2 73 34 73 31 -1 68 -20 69 -37 2 -25 46 -95 77 -121 9 -7 16 -16 16 -20
0 -14 82 -102 95 -102 6 0 10 -5 10 -11 0 -5 5 -7 10 -4 14 9 12 -18 -2 -35
-11 -13 -11 -13 2 -3 21 19 34 16 19 -4 -13 -16 -12 -17 4 -4 13 10 20 11 31
2 11 -9 16 -9 22 0 4 7 2 15 -4 17 -7 2 -10 7 -8 11 3 4 -4 8 -16 8 -16 2
-187 163 -172 163 2 0 -8 18 -22 40 -15 22 -31 40 -36 40 -5 0 -6 5 -3 10 3 6
1 10 -6 10 -7 0 -9 3 -6 7 4 3 2 12 -4 20 -10 11 38 13 284 13 294 0 295 0
290 -21 -3 -11 -12 -23 -19 -26 -8 -3 -11 -9 -8 -14 3 -5 -3 -9 -13 -9 -15 0
-16 -2 -3 -10 8 -5 11 -10 5 -10 -5 0 -3 -5 5 -10 13 -8 13 -10 -2 -10 -9 0
-18 5 -20 12 -3 7 -7 5 -11 -6 -4 -9 -3 -15 2 -11 5 3 12 1 16 -5 3 -6 -1 -13
-10 -16 -10 -4 -15 -14 -12 -25 3 -12 0 -19 -9 -19 -7 0 -20 -12 -28 -27 -8
-16 -26 -40 -41 -56 -14 -15 -22 -27 -18 -27 4 -1 -4 -8 -19 -16 -25 -13 -39
-44 -20 -44 11 1 47 30 37 30 -5 0 1 7 13 16 12 8 19 20 16 26 -4 6 -2 8 4 4
6 -3 13 -2 17 4 3 5 0 10 -7 11 -7 0 -5 4 5 8 10 4 18 10 17 14 0 5 8 16 19
25 12 9 43 60 70 112 44 84 53 95 79 98 23 2 31 -2 35 -17 3 -12 1 -21 -5 -21
-5 0 -7 -3 -4 -8 2 -4 -2 -31 -10 -61 -7 -29 -11 -58 -8 -62 3 -5 0 -9 -6 -9
-6 0 -8 -4 -5 -10 3 -5 1 -10 -5 -10 -6 0 -8 -4 -5 -10 3 -5 1 -10 -5 -10 -6
0 -8 -4 -5 -10 3 -5 1 -10 -6 -10 -7 0 -9 -3 -6 -6 4 -4 -2 -15 -13 -24 -17
-14 -18 -19 -6 -23 21 -8 77 89 80 139 0 13 4 24 8 24 3 0 5 14 3 30 -3 20 0
28 7 24 7 -5 9 3 6 23 -5 36 11 53 52 53 44 0 40 28 -5 32 -20 2 -36 8 -36 13
0 6 -8 19 -17 30 -16 19 -16 19 2 5 18 -14 19 -13 13 2 -3 10 -2 20 3 23 5 3
6 13 3 22 -5 12 -3 14 8 8 12 -8 12 -6 0 8 -22 27 -28 101 -15 157 4 14 7 48
8 77 0 28 4 49 9 46 4 -2 7 1 7 6 0 6 -7 11 -15 11 -10 0 -15 -10 -16 -27 0
-16 -3 -36 -7 -45 -6 -15 -9 -14 -19 7 -6 14 -8 25 -3 25 4 0 7 8 6 17 0 10
11 23 27 31 15 7 27 21 27 31 0 21 27 47 54 52 28 6 43 35 30 57 -23 35 -74
21 -74 -20 0 -17 -2 -18 -15 -8 -13 11 -13 15 -3 21 7 5 9 9 3 9 -5 0 -9 15
-9 32 1 18 -3 38 -8 45 -5 7 -7 17 -4 22 4 5 2 12 -3 16 -6 3 -8 12 -4 20 3 8
0 15 -7 15 -6 0 -9 4 -6 9 8 12 -54 132 -65 125 -5 -3 -9 1 -9 9 0 8 -10 22
-22 30 -19 14 -21 18 -8 26 8 5 18 7 24 4 5 -3 6 -1 2 6 -4 6 -12 8 -18 5 -6
-4 -8 1 -5 12 3 11 11 39 18 64 7 25 21 53 31 63 31 31 16 67 -29 67 -24 0
-42 -38 -28 -60 9 -15 -35 -158 -49 -155 -6 1 -18 5 -26 8 -36 13 -60 15 -53
4 4 -8 2 -8 -9 0 -8 7 -18 10 -21 6 -4 -3 -7 -1 -7 5 0 18 -61 83 -71 76 -5
-3 -8 0 -7 7 3 13 -122 113 -130 104 -3 -3 -11 0 -19 6 -7 6 -13 8 -13 3 0 -5
-4 -3 -9 4 -10 17 -114 24 -158 11z m57 -7 c0 -4 9 -8 20 -9 11 -1 18 2 16 6
-3 4 1 8 9 8 8 0 11 -5 8 -10 -4 -6 3 -8 16 -4 13 3 20 3 17 0 -3 -4 13 -15
35 -25 48 -21 53 -22 43 -6 -4 7 -3 8 5 4 6 -4 9 -11 6 -16 -7 -12 22 -33 36
-24 7 4 9 3 6 -3 -6 -10 54 -73 70 -73 4 0 13 -10 18 -22 6 -13 17 -22 25 -20
28 6 -11 -27 -46 -38 -34 -12 -43 -24 -24 -35 6 -3 10 -1 10 5 0 6 4 9 9 5 5
-3 15 1 23 8 7 7 20 12 29 12 18 0 49 -28 49 -44 0 -6 5 -11 10 -11 6 0 10 -9
10 -21 0 -13 -4 -18 -12 -13 -7 4 -8 3 -4 -4 9 -14 34 -5 46 18 7 14 5 20 -8
26 -9 4 -20 7 -24 6 -4 -1 -5 5 -2 13 4 8 1 15 -5 15 -21 0 -11 19 12 22 27 4
69 -20 60 -34 -5 -10 -7 -22 -12 -68 -1 -12 -3 -13 -10 -1 -12 19 -24 -4 -13
-26 7 -13 -17 -109 -84 -343 l-93 -325 0 198 c-1 125 3 197 9 197 14 0 13 43
-2 58 -20 20 -48 14 -60 -13 -9 -20 -8 -28 5 -43 14 -16 17 -42 16 -168 l-1
-149 -38 175 c-27 125 -35 180 -28 193 5 10 7 21 4 25 -3 3 -6 0 -6 -7 0 -7
-4 -10 -8 -7 -10 6 -37 144 -33 165 4 19 120 127 134 123 9 -2 9 12 0 21 -11
11 -103 -63 -103 -83 0 -6 -4 -9 -9 -6 -5 3 -12 -2 -15 -11 -12 -30 -28 3 -31
64 -3 77 -2 73 -28 73 -44 0 -60 -35 -31 -65 21 -20 46 -123 33 -131 -5 -3 -7
-9 -4 -14 3 -4 -2 -10 -10 -14 -9 -3 -12 -12 -8 -22 4 -11 2 -15 -4 -11 -14 9
-37 -19 -28 -33 3 -5 2 -10 -4 -10 -11 0 -41 -51 -41 -70 0 -20 16 -10 34 21
13 22 15 29 5 24 -8 -4 -4 1 7 13 12 11 32 38 45 59 l24 38 12 -65 c6 -36 14
-76 16 -90 3 -14 14 -65 26 -115 11 -49 23 -106 26 -125 3 -19 15 -75 26 -125
10 -49 19 -93 19 -98 0 -5 -32 33 -72 84 -39 52 -85 111 -101 131 -24 30 -28
40 -18 52 9 11 9 16 0 22 -7 4 -9 3 -5 -4 3 -6 2 -13 -3 -16 -5 -4 -23 11 -40
33 -32 41 -34 62 -6 105 16 24 14 46 -4 46 -4 0 -14 -18 -21 -40 -14 -42 -30
-53 -30 -21 0 41 -52 54 -74 19 -14 -23 2 -50 34 -58 21 -5 49 -50 31 -50 -15
0 -19 -38 -5 -44 9 -3 16 4 20 20 l7 26 26 -33 c14 -19 26 -37 26 -42 0 -4 5
-11 11 -15 12 -8 234 -290 234 -297 0 -3 -65 -5 -143 -5 l-144 0 -23 44 c-13
26 -20 52 -16 62 6 15 4 15 -10 3 -16 -13 -16 -12 -5 9 6 12 17 22 23 22 6 0
8 3 5 6 -4 4 -13 1 -22 -6 -17 -14 -17 -13 -19 47 0 24 3 43 8 43 4 0 6 7 3
15 -4 8 -2 17 4 21 6 3 8 12 5 20 -3 8 -1 14 3 14 8 0 8 9 1 40 0 3 -5 -3 -11
-13 -10 -16 -13 -28 -25 -87 -6 -30 -14 -39 -14 -16 0 9 -4 14 -10 11 -6 -4
-7 1 -3 11 4 10 2 15 -4 11 -5 -3 -10 0 -10 8 0 8 4 12 9 9 4 -3 5 2 2 10 -3
9 -9 14 -14 11 -4 -2 -5 7 -2 22 3 18 1 24 -7 19 -6 -4 -11 -2 -11 3 0 6 4 11
10 11 5 0 7 7 4 15 -4 8 -9 13 -13 11 -3 -2 -7 10 -7 27 -3 63 -9 95 -16 90
-5 -2 -8 1 -8 6 0 6 5 11 11 11 5 0 8 4 5 9 -13 21 -22 204 -10 222 2 4 0 11
-6 14 -8 5 -7 11 1 21 6 8 9 23 6 34 -3 11 -2 20 3 20 4 0 6 14 5 30 -1 17 2
30 7 30 6 0 8 9 5 20 -3 13 -1 18 6 13 6 -4 8 2 5 15 -4 12 -2 20 3 16 5 -3 9
3 9 12 0 9 11 32 25 50 14 18 24 39 23 46 -2 6 2 12 8 13 6 0 18 8 28 18 10 9
24 17 32 17 8 0 13 4 10 8 -3 5 1 9 9 10 8 1 22 3 30 4 8 1 15 5 15 10 0 4 5
8 10 8 6 0 10 -4 10 -8z m560 -332 c0 -6 5 -8 12 -4 8 5 9 2 5 -9 -4 -10 0
-20 11 -26 9 -6 14 -11 10 -11 -4 0 0 -19 8 -42 9 -24 18 -54 21 -68 8 -39 11
-55 13 -60 8 -21 -3 -107 -15 -126 -19 -29 -40 -22 -43 13 -1 15 -5 29 -10 32
-7 6 -9 13 -17 51 -8 36 -26 70 -37 70 -9 0 -8 3 2 10 12 8 12 10 -5 10 -17 0
-17 2 -5 10 13 9 7 14 -12 11 -4 0 -5 6 -2 14 4 9 2 21 -4 28 -20 24 -15 93
10 140 8 16 11 15 33 -7 14 -14 25 -30 25 -36z m-83 -108 c1 -11 15 -48 31
-83 17 -35 33 -79 37 -97 4 -18 10 -30 14 -27 5 2 7 -7 5 -20 -1 -15 4 -29 14
-35 10 -5 12 -10 5 -10 -7 0 -13 -5 -13 -11 0 -17 -39 -63 -264 -314 -21 -23
-26 -26 -22 -10 3 11 44 154 91 319 47 164 85 300 85 302 0 14 16 0 17 -14z
m-524 -197 c-3 -9 -8 -14 -10 -11 -3 3 -2 9 2 15 9 16 15 13 8 -4z m637 -156
c0 -5 4 -8 8 -5 5 3 6 -8 4 -25 -2 -16 0 -29 5 -29 13 0 -4 -142 -21 -182 -4
-9 -9 -22 -10 -30 -6 -30 -27 -69 -39 -74 -7 -2 -71 -3 -141 -2 l-128 3 87
100 c48 55 115 131 149 169 33 37 63 72 64 77 5 13 22 11 22 -2z m50 -49 c0
-5 -2 -10 -4 -10 -3 0 -8 5 -11 10 -3 6 -1 10 4 10 6 0 11 -4 11 -10z m-13
-157 c-4 -3 1 -12 11 -20 13 -10 13 -12 2 -8 -11 4 -16 -1 -17 -15 -5 -50 -5
-66 -2 -79 3 -10 -6 -15 -29 -17 -30 -2 -32 -1 -14 12 12 8 18 23 17 43 -1 17
2 31 7 31 4 0 7 3 7 8 -1 4 0 10 1 15 1 4 4 12 5 17 1 6 3 12 4 15 0 3 4 5 8
5 3 0 3 -3 0 -7z m-771 -68 c8 -20 18 -34 22 -31 4 2 9 -7 10 -20 2 -21 -2
-25 -21 -22 -18 2 -22 10 -24 42 -1 22 -5 46 -7 53 -12 30 6 10 20 -22z"/>
<path d="M1626 1841 c-4 -5 -2 -12 3 -15 5 -4 12 -2 15 3 4 5 2 12 -3 15 -5 4
-12 2 -15 -3z"/>
<path d="M1555 1770 c-3 -6 1 -7 9 -4 18 7 21 14 7 14 -6 0 -13 -4 -16 -10z"/>
<path d="M1525 1741 c-3 -5 0 -13 6 -17 7 -4 9 -3 5 4 -3 5 0 13 6 15 9 4 10
6 1 6 -6 1 -14 -3 -18 -8z"/>
<path d="M1474 1675 c-4 -8 -11 -12 -17 -8 -6 3 -7 1 -3 -5 9 -15 9 -15 29 8
9 11 12 20 7 20 -6 0 -13 -7 -16 -15z"/>
<path d="M1435 1640 c3 -5 8 -10 11 -10 2 0 4 5 4 10 0 6 -5 10 -11 10 -5 0
-7 -4 -4 -10z"/>
<path d="M1333 1505 c0 -7 6 -11 14 -8 7 3 13 6 13 8 0 2 -6 5 -13 8 -8 3 -14
-1 -14 -8z"/>
<path d="M1285 1441 c-3 -5 -2 -12 3 -15 5 -3 9 1 9 9 0 17 -3 19 -12 6z"/>
<path d="M1210 1318 c0 -4 4 -8 9 -8 6 0 12 4 15 8 3 5 -1 9 -9 9 -8 0 -15 -4
-15 -9z"/>
<path d="M1199 1295 c-1 -3 -2 -8 -3 -12 -1 -5 -5 -13 -9 -20 -4 -6 -3 -15 3
-18 6 -4 10 -3 9 2 -1 4 0 10 1 13 5 13 8 40 4 40 -2 0 -5 -2 -5 -5z"/>
<path d="M1174 1232 c3 -6 -2 -15 -11 -21 -10 -6 -13 -11 -7 -11 20 0 37 27
23 36 -7 4 -9 3 -5 -4z"/>
<path d="M880 2140 c-9 -6 -10 -10 -3 -10 6 0 15 5 18 10 8 12 4 12 -15 0z"/>
<path d="M860 2098 c0 -4 4 -8 9 -8 6 0 12 4 15 8 3 5 -1 9 -9 9 -8 0 -15 -4
-15 -9z"/>
<path d="M2110 2086 c0 -2 7 -9 15 -16 13 -11 14 -10 9 4 -5 14 -24 23 -24 12z"/>
<path d="M853 2050 c-1 -11 2 -22 6 -24 4 -3 7 4 6 14 -2 27 -10 33 -12 10z"/>
<path d="M2006 2022 c-3 -5 1 -9 9 -9 8 0 12 4 9 9 -3 4 -7 8 -9 8 -2 0 -6 -4
-9 -8z"/>
<path d="M2046 2017 c3 -10 9 -15 12 -12 3 3 0 11 -7 18 -10 9 -11 8 -5 -6z"/>
<path d="M848 2003 c6 -2 9 -10 6 -15 -4 -7 -2 -8 5 -4 13 9 5 26 -12 25 -9 0
-8 -2 1 -6z"/>
<path d="M1900 2001 c0 -7 -5 -9 -12 -5 -7 5 -8 3 -3 -5 5 -9 10 -10 18 -2 6
6 8 14 4 18 -4 3 -7 1 -7 -6z"/>
<path d="M2076 1999 c3 -5 9 -7 13 -4 17 10 71 -67 66 -95 -2 -10 5 -16 19
-17 11 -1 15 1 9 4 -7 3 -13 18 -13 34 0 16 -5 29 -11 29 -5 0 -8 3 -5 8 2 4
-2 16 -10 27 -8 11 -14 14 -14 6 0 -11 -3 -11 -16 0 -19 15 -47 21 -38 8z"/>
<path d="M1855 1980 c3 -5 8 -10 11 -10 2 0 4 5 4 10 0 6 -5 10 -11 10 -5 0
-7 -4 -4 -10z"/>
<path d="M835 1960 c3 -5 8 -10 11 -10 2 0 4 5 4 10 0 6 -5 10 -11 10 -5 0 -7
-4 -4 -10z"/>
<path d="M820 1900 c0 -5 5 -10 11 -10 5 0 7 -5 3 -12 -4 -7 -3 -8 5 -4 9 6 9
11 0 22 -14 17 -19 18 -19 4z"/>
<path d="M2165 1842 c0 -21 5 -29 20 -30 11 0 15 2 10 6 -6 4 -10 17 -9 30 1
12 -4 22 -10 22 -6 0 -11 -13 -11 -28z"/>
<path d="M816 1802 c-3 -5 1 -9 9 -9 8 0 12 4 9 9 -3 4 -7 8 -9 8 -2 0 -6 -4
-9 -8z"/>
<path d="M2169 1796 c-6 -6 -5 -42 1 -75 4 -22 3 -41 -1 -41 -5 0 -7 -10 -5
-22 2 -13 0 -30 -5 -39 -5 -10 -1 -19 14 -28 18 -11 20 -11 10 0 -7 7 -13 20
-13 29 0 11 2 12 8 2 5 -7 9 13 9 45 1 32 4 69 7 81 4 20 3 22 -9 12 -20 -16
-19 -1 0 20 13 15 13 17 0 17 -8 0 -15 -1 -16 -1z"/>
<path d="M814 1721 c1 -42 11 -46 12 -5 1 19 -2 34 -5 34 -4 0 -7 -13 -7 -29z"/>
<path d="M819 1668 c-4 -10 -3 -116 1 -112 5 6 8 114 3 114 -2 0 -3 -1 -4 -2z"/>
<path d="M2135 1580 c-3 -5 -1 -10 4 -10 6 0 11 5 11 10 0 6 -2 10 -4 10 -3 0
-8 -4 -11 -10z"/>
<path d="M2170 1560 c-9 -6 -10 -10 -3 -10 6 0 15 5 18 10 8 12 4 12 -15 0z"/>
<path d="M2131 1546 c-8 -10 -9 -16 -1 -21 5 -3 10 -5 11 -3 4 18 7 38 4 38
-1 0 -8 -6 -14 -14z"/>
<path d="M821 1527 c-13 -21 -12 -21 5 -5 10 10 16 20 13 22 -3 3 -11 -5 -18
-17z"/>
<path d="M2165 1523 c9 -7 12 -27 5 -35 -7 -9 -7 -39 0 -43 5 -3 7 3 5 15 -2
11 0 22 5 25 13 8 5 38 -11 43 -9 2 -10 0 -4 -5z"/>
<path d="M2107 1485 c3 -8 9 -12 14 -9 12 7 11 11 -5 17 -10 4 -13 1 -9 -8z"/>
<path d="M2085 1429 c-4 -6 -5 -12 -2 -15 2 -3 7 2 10 11 7 17 1 20 -8 4z"/>
<path d="M2166 1417 c3 -10 9 -15 12 -12 3 3 0 11 -7 18 -10 9 -11 8 -5 -6z"/>
<path d="M820 1416 c0 -2 7 -7 16 -10 8 -3 12 -2 9 4 -6 10 -25 14 -25 6z"/>
<path d="M2066 1397 c3 -10 9 -15 12 -12 3 3 0 11 -7 18 -10 9 -11 8 -5 -6z"/>
<path d="M2155 1371 c0 -16 3 -27 7 -25 4 3 6 14 5 24 -5 31 -13 32 -12 1z"/>
<path d="M835 1381 c-3 -5 -2 -12 3 -15 5 -3 9 1 9 9 0 17 -3 19 -12 6z"/>
<path d="M2034 1332 c3 -5 0 -13 -6 -15 -9 -4 -10 -6 -1 -6 17 -1 25 16 12 25
-7 4 -9 3 -5 -4z"/>
<path d="M855 1280 c-3 -5 -1 -10 4 -10 6 0 11 5 11 10 0 6 -2 10 -4 10 -3 0
-8 -4 -11 -10z"/>
<path d="M2136 1262 c-3 -5 1 -9 9 -9 8 0 12 4 9 9 -3 4 -7 8 -9 8 -2 0 -6 -4
-9 -8z"/>
<path d="M855 1251 c-6 -11 13 -26 22 -17 4 3 1 6 -6 6 -7 0 -9 5 -6 10 3 6 4
10 1 10 -3 0 -7 -4 -11 -9z"/>
<path d="M1986 1247 c3 -10 9 -15 12 -12 3 3 0 11 -7 18 -10 9 -11 8 -5 -6z"/>
<path d="M1943 1173 c0 -9 4 -10 14 -2 7 6 13 12 13 14 0 1 -6 2 -13 2 -8 0
-14 -6 -14 -14z"/>
<path d="M2115 1180 c-3 -6 1 -7 9 -4 18 7 21 14 7 14 -6 0 -13 -4 -16 -10z"/>
<path d="M2114 1145 c-9 -14 -15 -27 -13 -30 3 -2 12 10 21 26 21 36 15 39 -8
4z"/>
<path d="M885 1151 c-3 -5 -1 -13 5 -16 6 -4 8 -15 5 -26 -4 -10 -3 -19 2 -19
12 0 14 38 2 45 -5 4 -7 11 -4 16 4 5 4 9 1 9 -3 0 -7 -4 -11 -9z"/>
<path d="M911 1064 c0 -12 7 -28 17 -35 15 -12 16 -12 6 1 -7 8 -14 24 -17 35
-4 19 -5 19 -6 -1z"/>
<path d="M2093 1059 c-2 -23 3 -25 10 -4 4 8 3 16 -1 19 -4 3 -9 -4 -9 -15z"/>
<path d="M926 998 c3 -5 10 -6 15 -3 13 9 11 12 -6 12 -8 0 -12 -4 -9 -9z"/>
<path d="M2070 999 c0 -5 5 -7 10 -4 6 3 10 8 10 11 0 2 -4 4 -10 4 -5 0 -10
-5 -10 -11z"/>
<path d="M950 976 c0 -8 4 -17 9 -20 5 -4 7 3 4 14 -6 23 -13 26 -13 6z"/>
<path d="M2036 918 c3 -5 10 -6 15 -3 13 9 11 12 -6 12 -8 0 -12 -4 -9 -9z"/>
<path d="M1070 898 c0 -8 12 -15 27 -16 29 -2 29 0 -4 17 -18 9 -23 9 -23 -1z"/>
<path d="M2026 897 c3 -10 9 -15 12 -12 3 3 0 11 -7 18 -10 9 -11 8 -5 -6z"/>
<path d="M1695 880 c3 -5 8 -10 11 -10 2 0 4 5 4 10 0 6 -5 10 -11 10 -5 0 -7
-4 -4 -10z"/>
<path d="M990 869 c0 -5 5 -7 10 -4 6 3 10 8 10 11 0 2 -4 4 -10 4 -5 0 -10
-5 -10 -11z"/>
<path d="M2005 871 c-3 -5 -2 -12 3 -15 5 -3 9 1 9 9 0 17 -3 19 -12 6z"/>
<path d="M1087 850 c3 -11 9 -18 13 -15 4 3 7 -8 7 -23 -1 -34 31 -120 47
-124 7 -2 4 -10 -8 -22 -14 -14 -18 -15 -14 -4 4 8 -4 26 -16 39 -12 14 -21
30 -18 37 2 6 -1 12 -8 12 -6 0 -9 4 -6 8 2 4 -5 14 -17 22 -20 12 -21 12 -9
-2 7 -9 15 -27 17 -39 3 -13 9 -25 15 -27 6 -2 8 -8 4 -13 -3 -5 -1 -9 4 -9 5
0 14 -12 21 -26 6 -15 15 -24 18 -20 4 4 13 -4 21 -16 7 -13 11 -15 8 -6 -3
12 -1 15 10 11 10 -3 12 -13 8 -27 -6 -21 -6 -21 9 -1 12 15 19 17 27 9 9 -9
9 -14 -1 -19 -8 -5 -10 -4 -5 3 4 7 2 12 -3 12 -15 0 -14 -13 4 -36 13 -16 14
-16 9 -1 -3 9 -2 17 4 17 6 0 12 -5 14 -12 3 -7 12 -9 22 -5 9 4 14 12 10 18
-4 8 -9 7 -15 -2 -6 -10 -9 -8 -9 8 0 13 -11 28 -28 38 -15 10 -39 38 -52 64
-14 25 -27 48 -30 51 -3 3 -6 14 -7 25 -9 76 -16 95 -33 95 -13 0 -17 -5 -13
-20z m87 -192 c-3 -4 -9 -8 -15 -8 -5 0 -9 4 -9 8 0 5 7 9 15 9 8 0 12 -4 9
-9z"/>
<path d="M1639 848 c-8 -27 -5 -36 9 -30 10 4 12 7 4 10 -7 2 -10 8 -6 13 3 5
3 9 0 9 -3 0 -6 -1 -7 -2z"/>
<path d="M1991 831 c-7 -5 -12 -14 -10 -20 2 -6 10 -2 17 9 14 22 13 23 -7 11z"/>
<path d="M1030 799 c0 -5 5 -7 10 -4 6 3 10 8 10 11 0 2 -4 4 -10 4 -5 0 -10
-5 -10 -11z"/>
<path d="M1070 799 c0 -5 5 -7 10 -4 6 3 10 8 10 11 0 2 -4 4 -10 4 -5 0 -10
-5 -10 -11z"/>
<path d="M1600 795 c-7 -8 -16 -12 -21 -9 -5 3 -9 0 -9 -5 0 -16 16 -13 30 4
7 8 17 12 23 8 6 -3 7 -1 3 5 -9 15 -11 15 -26 -3z"/>
<path d="M1530 739 c0 -5 5 -7 10 -4 6 3 10 8 10 11 0 2 -4 4 -10 4 -5 0 -10
-5 -10 -11z"/>
<path d="M1510 731 c0 -7 -5 -9 -12 -5 -7 5 -8 3 -3 -5 5 -9 10 -10 18 -2 6 6
8 14 4 18 -4 3 -7 1 -7 -6z"/>
<path d="M1915 730 c-3 -6 1 -7 9 -4 18 7 21 14 7 14 -6 0 -13 -4 -16 -10z"/>
<path d="M1920 710 c-9 -6 -10 -10 -3 -10 6 0 15 5 18 10 8 12 4 12 -15 0z"/>
<path d="M1773 697 c-13 -21 -109 -65 -123 -57 -7 5 -19 6 -26 3 -7 -2 -23 1
-36 8 -13 7 -30 14 -38 14 -8 0 -20 3 -26 7 -12 8 -24 1 -24 -14 0 -4 7 -8 15
-8 42 0 -48 -62 -105 -72 -8 -2 -17 -6 -20 -9 -3 -4 -26 -1 -52 6 -42 10 -50
10 -63 -5 -15 -16 -14 -17 10 -17 14 0 25 3 25 8 0 5 5 9 11 9 5 0 7 -5 4 -11
-12 -18 98 -8 113 10 8 9 11 10 7 4 -9 -18 10 -16 25 2 7 8 16 12 21 9 5 -3 9
3 10 13 0 11 3 13 6 5 4 -10 8 -10 19 -1 8 6 12 15 9 19 -3 4 28 6 69 4 58 -4
82 0 117 15 43 20 89 53 89 65 0 11 -29 6 -37 -7z"/>
<path d="M1886 682 c-3 -5 1 -9 9 -9 8 0 15 4 15 9 0 4 -4 8 -9 8 -6 0 -12 -4
-15 -8z"/>
<path d="M1371 654 c0 -11 3 -14 6 -6 3 7 2 16 -1 19 -3 4 -6 -2 -5 -13z"/>
<path d="M1311 640 c-9 -5 -4 -7 13 -7 29 0 32 2 13 10 -8 3 -20 2 -26 -3z"/>
<path d="M1270 630 c0 -5 5 -10 11 -10 5 0 7 5 4 10 -3 6 -8 10 -11 10 -2 0
-4 -4 -4 -10z"/>
<path d="M1750 550 c0 -6 7 -10 15 -10 8 0 15 2 15 4 0 2 -7 6 -15 10 -8 3
-15 1 -15 -4z"/>
<path d="M1293 525 c0 -8 4 -12 9 -9 5 3 6 10 3 15 -9 13 -12 11 -12 -6z"/>
<path d="M1716 528 c3 -5 10 -6 15 -3 13 9 11 12 -6 12 -8 0 -12 -4 -9 -9z"/>
<path d="M1315 510 c-3 -6 1 -7 9 -4 18 7 21 14 7 14 -6 0 -13 -4 -16 -10z"/>
<path d="M1346 502 c-3 -5 1 -9 9 -9 8 0 12 4 9 9 -3 4 -7 8 -9 8 -2 0 -6 -4
-9 -8z"/>
<path d="M1656 493 c-6 -14 -5 -15 5 -6 7 7 10 15 7 18 -3 3 -9 -2 -12 -12z"/>
<path d="M1609 483 c-13 -17 -13 -17 6 -3 11 8 22 16 24 17 2 2 0 3 -6 3 -6 0
-17 -8 -24 -17z"/>
<path d="M1395 480 c26 -11 35 -12 35 -2 0 4 -12 8 -27 9 -24 1 -25 1 -8 -7z"/>
<path d="M1559 472 c-13 -15 -12 -16 3 -4 13 10 17 10 21 0 4 -9 6 -9 6 -1 2
20 -16 24 -30 5z"/>
<path d="M1450 475 c0 -7 30 -13 34 -7 3 4 -4 9 -15 9 -10 1 -19 0 -19 -2z"/>
<path d="M1499 463 c-12 -16 -12 -17 1 -7 8 6 22 14 30 17 13 5 12 6 -1 6 -9
1 -23 -7 -30 -16z"/>
<path d="M1080 355 l0 -35 420 0 420 0 0 35 0 35 -420 0 -420 0 0 -35z"/>
<path d="M1200 235 l0 -35 305 0 305 0 0 35 0 35 -305 0 -305 0 0 -35z"/>
<path d="M1350 115 l0 -35 150 0 150 0 0 35 0 35 -150 0 -150 0 0 -35z"/>
</g>
</svg>
